<svg viewBox="0 0 18 19" fill="none" xmlns="http://www.w3.org/2000/svg">
<path d="M1 4.42578H2.76178H16.856" stroke="#515151" stroke-width="1.21327" stroke-linecap="round" stroke-linejoin="round"/>
<path d="M5.4044 4.42569V2.71285C5.4044 2.25857 5.59001 1.8229 5.92041 1.50168C6.25081 1.18046 6.69893 1 7.16618 1H10.6898C11.157 1 11.6051 1.18046 11.9355 1.50168C12.2659 1.8229 12.4515 2.25857 12.4515 2.71285V4.42569M15.0942 4.42569V16.4156C15.0942 16.8699 14.9086 17.3055 14.5782 17.6268C14.2478 17.948 13.7997 18.1285 13.3324 18.1285H4.52351C4.05625 18.1285 3.60813 17.948 3.27773 17.6268C2.94733 17.3055 2.76172 16.8699 2.76172 16.4156V4.42569H15.0942Z" stroke="#515151" stroke-width="1.21327" stroke-linecap="round" stroke-linejoin="round"/>
<path d="M7.16602 8.70801V13.8465" stroke="#515151" stroke-width="1.21327" stroke-linecap="round" stroke-linejoin="round"/>
<path d="M10.6899 8.70801V13.8465" stroke="#515151" stroke-width="1.21327" stroke-linecap="round" stroke-linejoin="round"/>
</svg>
