<svg width="486" height="161" viewBox="0 0 486 161" fill="none" xmlns="http://www.w3.org/2000/svg">
<circle cx="455.5" cy="30.502" r="29" stroke="#B9A775" stroke-width="3"/>
<circle cx="399.5" cy="55.502" r="29" stroke="#B9A775" stroke-width="3"/>
<path d="M369.5 62.002C369.5 78.3174 356.493 91.502 340.5 91.502C324.507 91.502 311.5 78.3174 311.5 62.002C311.5 45.6865 324.507 32.502 340.5 32.502C356.493 32.502 369.5 45.6865 369.5 62.002Z" stroke="#B9A775" stroke-width="3"/>
<path d="M244.5 60.502C244.5 77.1165 231.471 90.502 215.5 90.502C199.529 90.502 186.5 77.1165 186.5 60.502C186.5 43.8874 199.529 30.502 215.5 30.502C231.471 30.502 244.5 43.8874 244.5 60.502Z" stroke="#B9A775" stroke-width="3"/>
<circle cx="30.5" cy="129.502" r="29" stroke="#C4C4C4" stroke-width="3"/>
<path d="M245 65.502C257.358 70.303 283.164 74.777 312 71.3476M186.358 59.002C174.307 59.9164 155.463 56.2585 137.612 74.777C115.736 97.4716 110.836 140.621 82 137.877" stroke="#B9A775" stroke-width="3" stroke-linecap="round" stroke-linejoin="round"/>
</svg>
