<svg fill="none" xmlns="http://www.w3.org/2000/svg">
<path d="M29.6096 3.56381C28.8521 2.75101 27.9528 2.10624 26.9629 1.66633C25.9731 1.22642 24.9121 1 23.8406 1C22.7691 1 21.7082 1.22642 20.7183 1.66633C19.7284 2.10624 18.8291 2.75101 18.0716 3.56381L16.4996 5.24987L14.9276 3.56381C13.3976 1.92278 11.3224 1.00085 9.15859 1.00085C6.9948 1.00085 4.91963 1.92278 3.3896 3.56381C1.85956 5.20485 1 7.43057 1 9.75134C1 12.0721 1.85956 14.2978 3.3896 15.9389L4.96161 17.6249L16.4996 30L28.0376 17.6249L29.6096 15.9389C30.3674 15.1265 30.9686 14.1619 31.3787 13.1002C31.7889 12.0385 32 10.9005 32 9.75134C32 8.60214 31.7889 7.46419 31.3787 6.40251C30.9686 5.34083 30.3674 4.37623 29.6096 3.56381V3.56381Z" stroke="#B9A775" stroke-width="1.5" stroke-linecap="round" stroke-linejoin="round"/>
</svg>
