<svg xmlns="http://www.w3.org/2000/svg">
<path d="M28.6096 2.56381C27.8521 1.75101 26.9528 1.10624 25.9629 0.666328C24.9731 0.226421 23.9121 0 22.8406 0C21.7691 0 20.7082 0.226421 19.7183 0.666328C18.7284 1.10624 17.8291 1.75101 17.0716 2.56381L15.4996 4.24987L13.9276 2.56381C12.3976 0.922775 10.3224 0.000850606 8.15859 0.000850623C5.9948 0.00085064 3.91963 0.922775 2.3896 2.56381C0.859564 4.20485 1.61215e-08 6.43057 0 8.75134C-1.61215e-08 11.0721 0.859564 13.2978 2.3896 14.9389L3.96161 16.6249L15.4996 29L27.0376 16.6249L28.6096 14.9389C29.3674 14.1265 29.9686 13.1618 30.3787 12.1002C30.7889 11.0385 31 9.90055 31 8.75134C31 7.60214 30.7889 6.46419 30.3787 5.40251C29.9686 4.34083 29.3674 3.37623 28.6096 2.56381Z" fill="#B9A775"/>
</svg>
