<svg fill="none" xmlns="http://www.w3.org/2000/svg">
<circle cx="258.925" cy="177.734" r="22.0155" transform="rotate(30.3753 258.925 177.734)" stroke="#B9A775" stroke-width="3"/>
<circle cx="213.15" cy="172.087" r="22.0155" transform="rotate(30.3753 213.15 172.087)" stroke="#B9A775" stroke-width="3"/>
<path d="M189.144 164.985C182.876 175.678 169.293 179.315 158.823 173.178C148.353 167.042 144.889 153.413 151.157 142.72C157.425 132.027 171.008 128.39 181.478 134.526C191.948 140.663 195.411 154.291 189.144 164.985Z" stroke="#C4C4C4" stroke-width="3"/>
<circle cx="129.618" cy="132.03" r="22.0155" transform="rotate(60.3753 129.618 132.03)" stroke="#B9A775" stroke-width="3"/>
<circle cx="93.4208" cy="103.539" r="22.0155" transform="rotate(60.3753 93.4208 103.539)" stroke="#B9A775" stroke-width="3"/>
<path d="M77.461 85.6112C66.6864 91.7381 53.1046 88.0962 47.1056 77.5467C41.1066 66.9971 44.9212 53.4628 55.6957 47.3358C66.4703 41.2089 80.0521 44.8508 86.0511 55.4003C92.0501 65.9499 88.2355 79.4842 77.461 85.6112Z" stroke="#B9A775" stroke-width="3"/>
<circle cx="492.344" cy="56.8982" r="22.0155" transform="rotate(-32.4946 492.344 56.8982)" stroke="#B9A775" stroke-width="3"/>
<circle cx="466.229" cy="94.6453" r="22.0155" transform="rotate(-32.4946 466.229 94.6453)" stroke="#B9A775" stroke-width="3"/>
<path d="M449.123 111.483C455.782 121.937 452.825 135.684 442.589 142.204C432.353 148.723 418.644 145.591 411.986 135.137C405.327 124.683 408.284 110.936 418.52 104.416C428.756 97.8962 442.464 101.028 449.123 111.483Z" stroke="#C4C4C4" stroke-width="3"/>
<circle cx="392.404" cy="149.747" r="22.0155" transform="rotate(-2.49457 392.404 149.747)" stroke="#B9A775" stroke-width="3"/>
<circle cx="350.354" cy="170.567" r="22.0155" transform="rotate(-2.49457 350.354 170.567)" stroke="#B9A775" stroke-width="3"/>
<path d="M327.12 176.595C327.66 188.978 318.225 199.405 306.101 199.933C293.976 200.462 283.671 190.895 283.131 178.512C282.592 166.129 292.026 155.702 304.151 155.174C316.275 154.646 326.581 164.212 327.12 176.595Z" stroke="#B9A775" stroke-width="3"/>
</svg>
