<svg fill="none" xmlns="http://www.w3.org/2000/svg">
<path d="M16.2467 18.8946C16.2467 20.1721 15.9912 21.2708 15.4802 22.1906C14.9692 23.0849 14.3049 23.8131 13.4873 24.3752C12.6952 24.9373 11.7882 25.3461 10.7662 25.6016C9.76969 25.8571 8.77322 25.9848 7.77675 25.9848C6.75473 25.9848 5.87324 25.8826 5.13227 25.6782C4.39131 25.4738 3.71422 25.2822 3.10101 25.1034C2.6922 24.9756 2.32172 24.8734 1.98956 24.7967C1.65741 24.6945 1.32525 24.6434 0.993094 24.6434V20.2743H1.37635C1.37635 21.2452 1.61908 22.0245 2.10454 22.6122C2.61555 23.1743 3.20321 23.6087 3.86752 23.9153C4.53184 24.2219 5.19615 24.4263 5.86046 24.5285C6.52478 24.6051 7.01023 24.6434 7.31684 24.6434C8.41551 24.6434 9.36088 24.4901 10.1529 24.1835C10.945 23.8514 11.5965 23.4298 12.1076 22.9188C12.6186 22.3822 12.989 21.7946 13.219 21.1558C13.4745 20.517 13.6023 19.8655 13.6023 19.2012C13.6023 18.358 13.4234 17.6554 13.0657 17.0933C12.708 16.5056 12.2353 15.9946 11.6476 15.5602C11.0855 15.1259 10.434 14.7554 9.69304 14.4488C8.95207 14.1422 8.19833 13.8356 7.43182 13.529C6.5631 13.1968 5.70716 12.8519 4.86399 12.4942C4.02083 12.1365 3.26709 11.7021 2.60278 11.1911C1.93846 10.6546 1.4019 10.0286 0.993094 9.31315C0.584287 8.57219 0.379883 7.66515 0.379883 6.59203C0.379883 5.4678 0.597062 4.49688 1.03142 3.67927C1.46578 2.8361 2.04066 2.14624 2.75608 1.60968C3.49704 1.07312 4.32743 0.677087 5.24725 0.421582C6.19262 0.140527 7.15076 0 8.12168 0C8.78599 0 9.41198 0.051101 9.99964 0.153303C10.5873 0.229954 11.1494 0.332155 11.686 0.459908C12.1203 0.56211 12.5419 0.651537 12.9507 0.728189C13.3595 0.779289 13.7556 0.804839 14.1388 0.804839V4.75239H13.7556C13.7045 3.42376 13.1807 2.5295 12.1842 2.06959C11.1877 1.58413 9.80801 1.3414 8.04503 1.3414C7.02301 1.3414 6.17984 1.52025 5.51553 1.87796C4.87677 2.21012 4.36576 2.6317 3.9825 3.14271C3.59924 3.62817 3.33096 4.16473 3.17766 4.75239C3.04991 5.3145 2.98603 5.81274 2.98603 6.24709C2.98603 6.96251 3.13934 7.57572 3.44594 8.08673C3.7781 8.59774 4.21246 9.04487 4.74902 9.42813C5.28558 9.81139 5.89879 10.1563 6.58865 10.4629C7.30406 10.7695 8.04503 11.0634 8.81154 11.3444C9.68026 11.6766 10.5618 12.0343 11.456 12.4175C12.3503 12.8008 13.1424 13.2735 13.8322 13.8356C14.5476 14.3977 15.1225 15.0876 15.5569 15.9052C16.0168 16.7228 16.2467 17.7193 16.2467 18.8946Z" fill="#B9A775"/>
<path d="M21.1997 0.383257H26.6803V0.766514H26.4887C26.3098 0.766514 26.1438 0.843165 25.9905 0.996468C25.8371 1.12422 25.7094 1.2903 25.6072 1.4947C25.505 1.67356 25.4156 1.89074 25.3389 2.14624C25.2878 2.3762 25.2623 2.5806 25.2623 2.75945V23.1871C25.2623 23.3915 25.2878 23.6214 25.3389 23.8769C25.39 24.1069 25.4667 24.3241 25.5689 24.5285C25.6966 24.7329 25.8244 24.9117 25.9521 25.065C26.1054 25.2183 26.2843 25.295 26.4887 25.295H26.6803V25.6782H21.1997V25.295H21.3914C21.5958 25.295 21.7746 25.2311 21.9279 25.1034C22.0812 24.9501 22.209 24.7712 22.3112 24.5668C22.4389 24.3368 22.5284 24.1069 22.5795 23.8769C22.6306 23.6214 22.6561 23.3915 22.6561 23.1871V2.75945C22.6561 2.5806 22.6306 2.3762 22.5795 2.14624C22.5284 1.91629 22.4389 1.69911 22.3112 1.4947C22.209 1.2903 22.0812 1.12422 21.9279 0.996468C21.7746 0.843165 21.5958 0.766514 21.3914 0.766514H21.1997V0.383257Z" fill="#B9A775"/>
<path d="M35.9231 25.295H36.1147V25.6782H31.8606V25.295H32.0522C32.2311 25.295 32.3971 25.2183 32.5504 25.065C32.7293 24.9117 32.8698 24.7329 32.972 24.5285C33.0742 24.3241 33.1509 24.1069 33.202 23.8769C33.2786 23.6214 33.317 23.3915 33.317 23.1871V2.75945C33.317 2.5806 33.2914 2.3762 33.2403 2.14624C33.2148 1.91629 33.1509 1.69911 33.0487 1.4947C32.9465 1.2903 32.8059 1.12422 32.6271 0.996468C32.4482 0.843165 32.2311 0.766514 31.9756 0.766514H31.7839V0.383257H35.6548L49.5671 22.3056V2.75945C49.5671 2.5806 49.5287 2.3762 49.4521 2.14624C49.401 1.91629 49.3116 1.69911 49.1838 1.4947C49.0816 1.2903 48.9538 1.12422 48.8005 0.996468C48.6472 0.843165 48.4684 0.766514 48.264 0.766514H48.0724V0.383257H52.3648V0.766514H52.1732C51.9688 0.766514 51.79 0.843165 51.6367 0.996468C51.4834 1.12422 51.3428 1.2903 51.2151 1.4947C51.1129 1.69911 51.0362 1.91629 50.9851 2.14624C50.934 2.3762 50.9085 2.5806 50.9085 2.75945V25.6782H48.5323L34.6584 3.67927V23.1871C34.6584 23.3915 34.6839 23.6214 34.735 23.8769C34.7861 24.1069 34.8628 24.3241 34.965 24.5285C35.0927 24.7329 35.2332 24.9117 35.3865 25.065C35.5398 25.2183 35.7187 25.295 35.9231 25.295Z" fill="#B9A775"/>
<path d="M61.522 25.295H61.7136V25.6782H57.4595V25.295H57.6511C57.8299 25.295 57.996 25.2183 58.1493 25.065C58.3282 24.9117 58.4687 24.7329 58.5709 24.5285C58.6731 24.3241 58.7498 24.1069 58.8009 23.8769C58.8775 23.6214 58.9158 23.3915 58.9158 23.1871V2.75945C58.9158 2.5806 58.8903 2.3762 58.8392 2.14624C58.8136 1.91629 58.7498 1.69911 58.6476 1.4947C58.5454 1.2903 58.4048 1.12422 58.226 0.996468C58.0471 0.843165 57.8299 0.766514 57.5744 0.766514H57.3828V0.383257H61.2537L75.166 22.3056V2.75945C75.166 2.5806 75.1276 2.3762 75.051 2.14624C74.9999 1.91629 74.9105 1.69911 74.7827 1.4947C74.6805 1.2903 74.5527 1.12422 74.3994 0.996468C74.2461 0.843165 74.0673 0.766514 73.8629 0.766514H73.6713V0.383257H77.9637V0.766514H77.7721C77.5677 0.766514 77.3889 0.843165 77.2355 0.996468C77.0822 1.12422 76.9417 1.2903 76.814 1.4947C76.7118 1.69911 76.6351 1.91629 76.584 2.14624C76.5329 2.3762 76.5074 2.5806 76.5074 2.75945V25.6782H74.1312L60.2572 3.67927V23.1871C60.2572 23.3915 60.2828 23.6214 60.3339 23.8769C60.385 24.1069 60.4617 24.3241 60.5639 24.5285C60.6916 24.7329 60.8321 24.9117 60.9854 25.065C61.1387 25.2183 61.3176 25.295 61.522 25.295Z" fill="#B9A775"/>
<path d="M83.0967 25.295H83.2883C83.4927 25.295 83.6716 25.2311 83.8249 25.1034C83.9782 24.9501 84.1059 24.7712 84.2081 24.5668C84.3359 24.3624 84.4253 24.1452 84.4764 23.9153C84.5531 23.6853 84.5914 23.4681 84.5914 23.2637V2.75945C84.5914 2.5806 84.5531 2.3762 84.4764 2.14624C84.4253 1.91629 84.3359 1.69911 84.2081 1.4947C84.1059 1.2903 83.9782 1.12422 83.8249 0.996468C83.6716 0.843165 83.4927 0.766514 83.2883 0.766514H83.0967V0.383257H97.8521V3.94755H97.4688C97.4177 3.35989 97.1878 2.84888 96.779 2.41452C96.3702 1.95461 95.7314 1.72466 94.8627 1.72466H87.1592V11.4211H93.5213C94.1089 11.4211 94.5944 11.2422 94.9777 10.8845C95.3865 10.5268 95.5909 10.1052 95.5909 9.61976H95.9741V14.4105H95.5909C95.5909 13.9506 95.3992 13.5545 95.016 13.2224C94.6327 12.8902 94.1345 12.7241 93.5213 12.7241H87.1592V24.3368H95.5526C96.038 24.3368 96.4596 24.2219 96.8173 23.9919C97.175 23.762 97.4688 23.4937 97.6988 23.1871C97.9543 22.8549 98.1331 22.51 98.2354 22.1523C98.3631 21.769 98.427 21.4496 98.427 21.1941H98.8102V25.6782H83.0967V25.295Z" fill="#B9A775"/>
<path d="M108.443 25.295H108.635V25.6782H103.231V25.295H103.423C103.602 25.295 103.768 25.2183 103.921 25.065C104.074 24.9117 104.202 24.7329 104.304 24.5285C104.432 24.3241 104.521 24.1069 104.573 23.8769C104.624 23.6214 104.649 23.3915 104.649 23.1871V2.75945C104.649 2.5806 104.624 2.3762 104.573 2.14624C104.521 1.91629 104.432 1.69911 104.304 1.4947C104.202 1.2903 104.074 1.12422 103.921 0.996468C103.768 0.843165 103.602 0.766514 103.423 0.766514H103.231V0.383257H109.9C112.455 0.383257 114.422 0.881491 115.802 1.87796C117.207 2.87443 117.91 4.34358 117.91 6.28542C117.91 7.25634 117.744 8.11228 117.412 8.85324C117.105 9.56866 116.684 10.1946 116.147 10.7312C115.61 11.2422 114.972 11.6638 114.231 11.996C113.515 12.3026 112.749 12.5325 111.931 12.6858L114.691 16.9016C115.355 17.9237 116.032 18.9329 116.722 19.9294C117.412 20.9003 118.089 21.9095 118.753 22.9571C118.932 23.2126 119.124 23.4809 119.328 23.762C119.558 24.043 119.788 24.2985 120.018 24.5285C120.273 24.7584 120.529 24.9501 120.784 25.1034C121.065 25.2311 121.346 25.295 121.628 25.295V25.6782H119.98C118.957 25.6782 118.114 25.4355 117.45 24.9501C116.811 24.439 116.275 23.8514 115.84 23.1871C114.691 21.5007 113.541 19.7889 112.391 18.0514C111.267 16.314 110.143 14.6021 109.018 12.9158C108.737 12.8902 108.431 12.8647 108.099 12.8391C107.792 12.788 107.498 12.7369 107.217 12.6858V23.1871C107.217 23.3915 107.243 23.6214 107.294 23.8769C107.345 24.1069 107.421 24.3241 107.524 24.5285C107.651 24.7329 107.779 24.9117 107.907 25.065C108.06 25.2183 108.239 25.295 108.443 25.295ZM107.217 1.68633V11.4211H107.409C107.613 11.4466 107.932 11.4722 108.367 11.4977C108.827 11.4977 109.389 11.4977 110.053 11.4977C110.59 11.4977 111.152 11.4211 111.739 11.2678C112.353 11.0889 112.915 10.8079 113.426 10.4246C113.962 10.0158 114.397 9.492 114.729 8.85324C115.087 8.21448 115.265 7.40964 115.265 6.43872C115.265 5.4678 115.074 4.67574 114.691 4.06253C114.333 3.44932 113.822 2.96386 113.158 2.60615C112.519 2.24844 111.739 2.00571 110.82 1.87796C109.9 1.75021 108.891 1.68633 107.792 1.68633H107.217Z" fill="#B9A775"/>
<path d="M141.942 12.3409H147.422V12.7241H147.231C147.026 12.7241 146.847 12.8008 146.694 12.9541C146.541 13.0819 146.413 13.2479 146.311 13.4523C146.209 13.6567 146.119 13.8739 146.042 14.1039C145.991 14.3338 145.966 14.5382 145.966 14.7171V24.9884C145.506 25.1672 144.982 25.3205 144.394 25.4483C143.807 25.576 143.194 25.6782 142.555 25.7549C141.916 25.8571 141.265 25.9337 140.6 25.9848C139.936 26.0359 139.323 26.0615 138.761 26.0615C136.461 26.0615 134.455 25.6782 132.743 24.9117C131.032 24.1452 129.614 23.1487 128.489 21.9223C127.365 20.6703 126.522 19.2651 125.96 17.7065C125.423 16.1479 125.155 14.5766 125.155 12.9924C125.155 11.4083 125.423 9.83694 125.96 8.27836C126.522 6.71978 127.365 5.32728 128.489 4.10085C129.639 2.87443 131.07 1.89074 132.782 1.14977C134.519 0.383257 136.576 0 138.952 0C139.847 0 140.677 0.0766513 141.443 0.229954C142.21 0.383256 142.887 0.523784 143.475 0.651536C143.807 0.728188 144.088 0.80484 144.318 0.881492C144.573 0.932592 144.791 0.958142 144.969 0.958142H145.314V5.02067H144.931C144.778 4.2286 144.471 3.58984 144.011 3.10438C143.577 2.61892 143.066 2.24844 142.478 1.99294C141.891 1.73743 141.265 1.57135 140.6 1.4947C139.961 1.3925 139.361 1.3414 138.799 1.3414C136.883 1.3414 135.222 1.68633 133.817 2.37619C132.411 3.04051 131.262 3.90922 130.367 4.98235C129.473 6.05547 128.809 7.26911 128.374 8.62329C127.94 9.95191 127.723 11.2805 127.723 12.6092C127.723 14.0911 128.004 15.5602 128.566 17.0166C129.128 18.4475 129.92 19.7378 130.942 20.8875C131.964 22.0117 133.191 22.9316 134.621 23.647C136.078 24.3368 137.687 24.6818 139.45 24.6818C139.936 24.6818 140.536 24.6307 141.252 24.5285C141.967 24.4007 142.683 24.1324 143.398 23.7236V14.7171C143.398 14.5382 143.372 14.3338 143.321 14.1039C143.27 13.8739 143.181 13.6567 143.053 13.4523C142.951 13.2479 142.823 13.0819 142.67 12.9541C142.517 12.8008 142.338 12.7241 142.133 12.7241H141.942V12.3409Z" fill="#B9A775"/>
<path d="M152.183 25.295H152.375C152.579 25.295 152.758 25.2311 152.911 25.1034C153.065 24.9501 153.193 24.7712 153.295 24.5668C153.423 24.3624 153.512 24.1452 153.563 23.9153C153.64 23.6853 153.678 23.4681 153.678 23.2637V2.75945C153.678 2.5806 153.64 2.3762 153.563 2.14624C153.512 1.91629 153.423 1.69911 153.295 1.4947C153.193 1.2903 153.065 1.12422 152.911 0.996468C152.758 0.843165 152.579 0.766514 152.375 0.766514H152.183V0.383257H166.939V3.94755H166.555C166.504 3.35989 166.274 2.84888 165.866 2.41452C165.457 1.95461 164.818 1.72466 163.949 1.72466H156.246V11.4211H162.608C163.196 11.4211 163.681 11.2422 164.064 10.8845C164.473 10.5268 164.677 10.1052 164.677 9.61976H165.061V14.4105H164.677C164.677 13.9506 164.486 13.5545 164.103 13.2224C163.719 12.8902 163.221 12.7241 162.608 12.7241H156.246V24.3368H164.639C165.125 24.3368 165.546 24.2219 165.904 23.9919C166.262 23.762 166.555 23.4937 166.785 23.1871C167.041 22.8549 167.22 22.51 167.322 22.1523C167.45 21.769 167.514 21.4496 167.514 21.1941H167.897V25.6782H152.183V25.295Z" fill="#B9A775"/>
<path d="M192.937 25.295H193.129C193.307 25.295 193.474 25.2183 193.627 25.065C193.78 24.9117 193.908 24.7329 194.01 24.5285C194.138 24.3241 194.227 24.1069 194.278 23.8769C194.33 23.6214 194.355 23.3915 194.355 23.1871V3.02773L184.467 26.0998L175.077 4.21583V23.1871C175.077 23.3915 175.103 23.6214 175.154 23.8769C175.205 24.1069 175.282 24.3241 175.384 24.5285C175.512 24.7329 175.652 24.9117 175.805 25.065C175.959 25.2183 176.138 25.295 176.342 25.295H176.534V25.6782H172.356V25.295H172.548C172.727 25.295 172.893 25.2183 173.046 25.065C173.199 24.9117 173.327 24.7329 173.429 24.5285C173.531 24.3241 173.608 24.1069 173.659 23.8769C173.71 23.6214 173.736 23.3915 173.736 23.1871V2.75945C173.736 2.5806 173.71 2.3762 173.659 2.14624C173.608 1.91629 173.531 1.69911 173.429 1.4947C173.327 1.2903 173.199 1.12422 173.046 0.996468C172.893 0.843165 172.727 0.766514 172.548 0.766514H172.356V0.383257H176.265L185.157 21.3474L194.048 0.383257H198.379V0.766514H198.188C197.983 0.766514 197.804 0.843165 197.651 0.996468C197.498 1.12422 197.357 1.2903 197.23 1.4947C197.127 1.69911 197.051 1.91629 197 2.14624C196.948 2.3762 196.923 2.5806 196.923 2.75945V23.1871C196.923 23.3915 196.948 23.6214 197 23.8769C197.051 24.1069 197.127 24.3241 197.23 24.5285C197.357 24.7329 197.498 24.9117 197.651 25.065C197.804 25.2183 197.983 25.295 198.188 25.295H198.379V25.6782H192.937V25.295Z" fill="#B9A775"/>
<path d="M219.165 18.8946C219.165 20.1721 218.91 21.2708 218.398 22.1906C217.887 23.0849 217.223 23.8131 216.406 24.3752C215.613 24.9373 214.706 25.3461 213.684 25.6016C212.688 25.8571 211.691 25.9848 210.695 25.9848C209.673 25.9848 208.792 25.8826 208.051 25.6782C207.31 25.4738 206.632 25.2822 206.019 25.1034C205.61 24.9756 205.24 24.8734 204.908 24.7967C204.576 24.6945 204.244 24.6434 203.911 24.6434V20.2743H204.295C204.295 21.2452 204.537 22.0245 205.023 22.6122C205.534 23.1743 206.121 23.6087 206.786 23.9153C207.45 24.2219 208.114 24.4263 208.779 24.5285C209.443 24.6051 209.928 24.6434 210.235 24.6434C211.334 24.6434 212.279 24.4901 213.071 24.1835C213.863 23.8514 214.515 23.4298 215.026 22.9188C215.537 22.3822 215.907 21.7946 216.137 21.1558C216.393 20.517 216.521 19.8655 216.521 19.2012C216.521 18.358 216.342 17.6554 215.984 17.0933C215.626 16.5056 215.154 15.9946 214.566 15.5602C214.004 15.1259 213.352 14.7554 212.611 14.4488C211.87 14.1422 211.117 13.8356 210.35 13.529C209.481 13.1968 208.625 12.8519 207.782 12.4942C206.939 12.1365 206.185 11.7021 205.521 11.1911C204.857 10.6546 204.32 10.0286 203.911 9.31315C203.503 8.57219 203.298 7.66515 203.298 6.59203C203.298 5.4678 203.515 4.49688 203.95 3.67927C204.384 2.8361 204.959 2.14624 205.674 1.60968C206.415 1.07312 207.246 0.677087 208.166 0.421582C209.111 0.140527 210.069 0 211.04 0C211.704 0 212.33 0.051101 212.918 0.153303C213.506 0.229954 214.068 0.332155 214.604 0.459908C215.039 0.56211 215.46 0.651537 215.869 0.728189C216.278 0.779289 216.674 0.804839 217.057 0.804839V4.75239H216.674C216.623 3.42376 216.099 2.5295 215.102 2.06959C214.106 1.58413 212.726 1.3414 210.963 1.3414C209.941 1.3414 209.098 1.52025 208.434 1.87796C207.795 2.21012 207.284 2.6317 206.901 3.14271C206.518 3.62817 206.249 4.16473 206.096 4.75239C205.968 5.3145 205.904 5.81274 205.904 6.24709C205.904 6.96251 206.058 7.57572 206.364 8.08673C206.696 8.59774 207.131 9.04487 207.667 9.42813C208.204 9.81139 208.817 10.1563 209.507 10.4629C210.222 10.7695 210.963 11.0634 211.73 11.3444C212.599 11.6766 213.48 12.0343 214.374 12.4175C215.269 12.8008 216.061 13.2735 216.75 13.8356C217.466 14.3977 218.041 15.0876 218.475 15.9052C218.935 16.7228 219.165 17.7193 219.165 18.8946Z" fill="#B9A775"/>
</svg>
