<svg width="31" height="25" viewBox="0 0 31 25" fill="none" xmlns="http://www.w3.org/2000/svg">
<path fill-rule="evenodd" clip-rule="evenodd" d="M8.53136 7.91676C5.81369 9.07217 3.02142 10.2594 0.468053 11.6289C-0.865212 12.5794 0.906788 13.2519 2.56927 13.8826C2.83355 13.9828 3.09501 14.082 3.34087 14.1811C3.54547 14.2424 3.75346 14.3069 3.96427 14.3723C5.81324 14.9458 7.87483 15.5854 9.66988 14.6233C12.6186 12.9739 15.4013 11.0671 18.1819 9.16165C19.0929 8.53733 20.0036 7.91324 20.9199 7.29839C20.9629 7.27164 21.0112 7.24104 21.0643 7.20769C21.8448 6.71491 23.6004 5.60683 22.951 7.13372C21.4155 8.76892 19.7707 10.2163 18.117 11.6718C17.0025 12.6526 15.8838 13.6371 14.7919 14.685C13.8409 15.4374 12.8533 16.9505 13.9182 18.0042C16.371 19.6762 18.8622 21.3076 21.3518 22.9382C22.162 23.4688 22.9721 23.9993 23.7806 24.5312C25.1508 25.5964 27.2923 24.7347 27.5936 23.0701C27.7275 22.3043 27.8621 21.5387 27.9966 20.7729C28.7399 16.5411 29.4835 12.3077 30.1403 8.06205C30.2296 7.39602 30.3308 6.73009 30.4321 6.06384C30.6775 4.44901 30.9232 2.83219 31 1.20866C30.8022 -0.411569 28.7847 -0.0552716 27.662 0.30906C21.8911 2.44728 16.178 4.744 10.4874 7.08122C9.84272 7.35926 9.18924 7.63707 8.53136 7.91676Z" fill="#B9A775"/>
</svg>
