<svg width="24" height="26" viewBox="0 0 24 26" fill="none" xmlns="http://www.w3.org/2000/svg">
<path d="M1 5.7998H3.46857H23.2171" stroke="#C4C4C4" stroke-linecap="round" stroke-linejoin="round"/>
<path d="M7.17161 5.8V3.4C7.17161 2.76348 7.4317 2.15303 7.89464 1.70294C8.35759 1.25286 8.98548 1 9.64019 1H14.5773C15.232 1 15.8599 1.25286 16.3229 1.70294C16.7858 2.15303 17.0459 2.76348 17.0459 3.4V5.8M20.7488 5.8V22.6C20.7488 23.2365 20.4887 23.847 20.0258 24.2971C19.5628 24.7471 18.9349 25 18.2802 25H5.93733C5.28262 25 4.65473 24.7471 4.19178 24.2971C3.72883 23.847 3.46875 23.2365 3.46875 22.6V5.8H20.7488Z" stroke="#C4C4C4" stroke-linecap="round" stroke-linejoin="round"/>
<path d="M9.64062 11.7998V18.9998" stroke="#C4C4C4" stroke-linecap="round" stroke-linejoin="round"/>
<path d="M14.5781 11.7998V18.9998" stroke="#C4C4C4" stroke-linecap="round" stroke-linejoin="round"/>
</svg>
