<svg width="15" height="15" viewBox="0 0 15 15" fill="none" xmlns="http://www.w3.org/2000/svg">
<path d="M7.5 14C11.0899 14 14 11.0899 14 7.5C14 3.91015 11.0899 1 7.5 1C3.91015 1 1 3.91015 1 7.5C1 11.0899 3.91015 14 7.5 14Z" stroke="#BDBDBD" stroke-linecap="round" stroke-linejoin="round"/>
<path d="M5.60889 5.54998C5.7617 5.11556 6.06334 4.74925 6.46036 4.51592C6.85738 4.28258 7.32417 4.19729 7.77805 4.27514C8.23193 4.353 8.64362 4.58897 8.94019 4.94127C9.23676 5.29358 9.39907 5.73947 9.39839 6.19998C9.39839 7.49998 7.44839 8.14998 7.44839 8.14998" stroke="#BDBDBD" stroke-linecap="round" stroke-linejoin="round"/>
<path d="M7.5 10.75H7.50846" stroke="#BDBDBD" stroke-linecap="round" stroke-linejoin="round"/>
</svg>
