<svg width="256" height="85" viewBox="0 0 256 85" fill="none" xmlns="http://www.w3.org/2000/svg">
<circle cx="239.208" cy="16.0173" r="15.2295" stroke="#B9A775" stroke-width="1.57547"/>
<circle cx="209.799" cy="29.1462" r="15.2295" stroke="#B9A775" stroke-width="1.57547"/>
<path d="M194.045 32.5596C194.045 41.1278 187.215 48.0518 178.816 48.0518C170.417 48.0518 163.586 41.1278 163.586 32.5596C163.586 23.9915 170.417 17.0675 178.816 17.0675C187.215 17.0675 194.045 23.9915 194.045 32.5596Z" stroke="#B9A775" stroke-width="1.57547"/>
<path d="M128.402 31.7719C128.402 40.4971 121.559 47.5266 113.172 47.5266C104.785 47.5266 97.9425 40.4971 97.9425 31.7719C97.9425 23.0467 104.785 16.0172 113.172 16.0172C121.559 16.0172 128.402 23.0467 128.402 31.7719Z" stroke="#B9A775" stroke-width="1.57547"/>
<circle cx="16.0173" cy="68.008" r="15.2295" stroke="#C4C4C4" stroke-width="1.57547"/>
<path d="M128.663 34.3974C135.153 36.9187 148.706 39.2682 163.849 37.4673M97.8674 30.9839C91.5385 31.4641 81.6424 29.5431 72.268 39.2682C60.7795 51.1865 58.2063 73.8465 43.063 72.4057" stroke="#B9A775" stroke-width="1.57547" stroke-linecap="round" stroke-linejoin="round"/>
</svg>
