<svg width="311" height="146" viewBox="0 0 311 146" fill="none" xmlns="http://www.w3.org/2000/svg">
<circle cx="145.311" cy="99.3784" r="12.3555" transform="rotate(30.3753 145.311 99.3784)" stroke="#B9A775" stroke-width="1.68365"/>
<circle cx="119.622" cy="96.2095" r="12.3555" transform="rotate(30.3753 119.622 96.2095)" stroke="#B9A775" stroke-width="1.68365"/>
<path d="M106.149 92.2234C102.632 98.2247 95.0085 100.266 89.1326 96.8218C83.2566 93.3778 81.3127 85.7294 84.8302 79.728C88.3477 73.7267 95.9708 71.6856 101.847 75.1296C107.723 78.5736 109.667 86.2221 106.149 92.2234Z" stroke="#C4C4C4" stroke-width="1.68365"/>
<circle cx="72.7434" cy="73.7292" r="12.3555" transform="rotate(60.3753 72.7434 73.7292)" stroke="#B9A775" stroke-width="1.68365"/>
<circle cx="52.4294" cy="57.74" r="12.3555" transform="rotate(60.3753 52.4294 57.74)" stroke="#B9A775" stroke-width="1.68365"/>
<path d="M43.4724 47.6791C37.4255 51.1176 29.8031 49.0737 26.4364 43.1532C23.0697 37.2326 25.2105 29.6369 31.2574 26.1983C37.3042 22.7598 44.9266 24.8037 48.2933 30.7242C51.6601 36.6448 49.5193 44.2405 43.4724 47.6791Z" stroke="#B9A775" stroke-width="1.68365"/>
<circle cx="276.312" cy="31.5638" r="12.3555" transform="rotate(-32.4946 276.312 31.5638)" stroke="#B9A775" stroke-width="1.68365"/>
<circle cx="261.656" cy="52.7479" r="12.3555" transform="rotate(-32.4946 261.656 52.7479)" stroke="#B9A775" stroke-width="1.68365"/>
<path d="M252.055 62.1975C255.792 68.0647 254.133 75.7798 248.388 79.4387C242.643 83.0977 234.95 81.3399 231.213 75.4727C227.476 69.6056 229.136 61.8905 234.88 58.2315C240.625 54.5726 248.318 56.3304 252.055 62.1975Z" stroke="#C4C4C4" stroke-width="1.68365"/>
<circle cx="220.225" cy="83.6709" r="12.3555" transform="rotate(-2.49457 220.225 83.6709)" stroke="#B9A775" stroke-width="1.68365"/>
<circle cx="196.626" cy="95.3565" r="12.3555" transform="rotate(-2.49457 196.626 95.3565)" stroke="#B9A775" stroke-width="1.68365"/>
<path d="M183.586 98.7394C183.889 105.689 178.594 111.541 171.79 111.837C164.985 112.134 159.202 106.765 158.899 99.815C158.596 92.8654 163.891 87.0137 170.696 86.7173C177.5 86.4209 183.284 91.7899 183.586 98.7394Z" stroke="#B9A775" stroke-width="1.68365"/>
</svg>
