<svg width="25" height="35" viewBox="0 0 25 35" fill="none" xmlns="http://www.w3.org/2000/svg">
<g filter="url(#filter0_d_932_558)">
<path d="M20.2466 19.2163C20.2466 20.4939 19.9911 21.5925 19.4801 22.5124C18.9691 23.4066 18.3047 24.1348 17.4871 24.6969C16.6951 25.259 15.788 25.6678 14.766 25.9233C13.7695 26.1789 12.7731 26.3066 11.7766 26.3066C10.7546 26.3066 9.87308 26.2044 9.13212 26C8.39115 25.7956 7.71407 25.604 7.10085 25.4251C6.69205 25.2974 6.32156 25.1952 5.98941 25.1185C5.65725 25.0163 5.32509 24.9652 4.99294 24.9652V20.5961H5.3762C5.3762 21.567 5.61892 22.3463 6.10438 22.9339C6.61539 23.4961 7.20306 23.9304 7.86737 24.237C8.53168 24.5436 9.19599 24.748 9.86031 24.8502C10.5246 24.9269 11.0101 24.9652 11.3167 24.9652C12.4154 24.9652 13.3607 24.8119 14.1528 24.5053C14.9449 24.1731 15.5964 23.7516 16.1074 23.2405C16.6184 22.704 16.9889 22.1163 17.2188 21.4776C17.4744 20.8388 17.6021 20.1873 17.6021 19.523C17.6021 18.6798 17.4232 17.9771 17.0655 17.415C16.7078 16.8274 16.2352 16.3164 15.6475 15.882C15.0854 15.4476 14.4338 15.0772 13.6929 14.7706C12.9519 14.464 12.1982 14.1573 11.4317 13.8507C10.5629 13.5186 9.707 13.1737 8.86384 12.8159C8.02067 12.4582 7.26693 12.0239 6.60262 11.5129C5.93831 10.9763 5.40175 10.3503 4.99294 9.63491C4.58413 8.89395 4.37973 7.98691 4.37973 6.91379C4.37973 5.78956 4.59691 4.81865 5.03126 4.00103C5.46562 3.15786 6.04051 2.468 6.75592 1.93144C7.49689 1.39488 8.32728 0.998847 9.24709 0.743343C10.1925 0.462288 11.1506 0.321761 12.1215 0.321761C12.7858 0.321761 13.4118 0.372862 13.9995 0.475064C14.5871 0.551714 15.1493 0.653916 15.6858 0.781668C16.1202 0.88387 16.5418 0.973297 16.9506 1.04995C17.3594 1.10105 17.7554 1.1266 18.1387 1.1266V5.07415H17.7554C17.7043 3.74553 17.1805 2.85126 16.1841 2.39135C15.1876 1.90589 13.8079 1.66316 12.0449 1.66316C11.0229 1.66316 10.1797 1.84201 9.51537 2.19972C8.87661 2.53188 8.3656 2.95346 7.98235 3.46447C7.59909 3.94993 7.33081 4.48649 7.1775 5.07415C7.04975 5.63626 6.98588 6.1345 6.98588 6.56885C6.98588 7.28427 7.13918 7.89748 7.44578 8.40849C7.77794 8.9195 8.2123 9.36663 8.74886 9.74989C9.28542 10.1331 9.89863 10.4781 10.5885 10.7847C11.3039 11.0913 12.0449 11.3851 12.8114 11.6662C13.6801 11.9983 14.5616 12.356 15.4559 12.7393C16.3501 13.1226 17.1422 13.5952 17.8321 14.1573C18.5475 14.7195 19.1224 15.4093 19.5567 16.2269C20.0166 17.0446 20.2466 18.041 20.2466 19.2163Z" fill="#B9A775"/>
</g>
<defs>
<filter id="filter0_d_932_558" x="0.379883" y="0.321289" width="23.8667" height="33.9854" filterUnits="userSpaceOnUse" color-interpolation-filters="sRGB">
<feFlood flood-opacity="0" result="BackgroundImageFix"/>
<feColorMatrix in="SourceAlpha" type="matrix" values="0 0 0 0 0 0 0 0 0 0 0 0 0 0 0 0 0 0 127 0" result="hardAlpha"/>
<feOffset dy="4"/>
<feGaussianBlur stdDeviation="2"/>
<feComposite in2="hardAlpha" operator="out"/>
<feColorMatrix type="matrix" values="0 0 0 0 0 0 0 0 0 0 0 0 0 0 0 0 0 0 0.25 0"/>
<feBlend mode="normal" in2="BackgroundImageFix" result="effect1_dropShadow_932_558"/>
<feBlend mode="normal" in="SourceGraphic" in2="effect1_dropShadow_932_558" result="shape"/>
</filter>
</defs>
</svg>
