<svg width="26" height="26" viewBox="0 0 26 26" fill="none" xmlns="http://www.w3.org/2000/svg">
<path d="M13 25C19.6274 25 25 19.6274 25 13C25 6.37258 19.6274 1 13 1C6.37258 1 1 6.37258 1 13C1 19.6274 6.37258 25 13 25Z" stroke="#B9A775" stroke-linecap="round" stroke-linejoin="round"/>
<path d="M12.881 15.1849C12.38 15.1849 11.95 14.768 12.1004 14.29C12.1312 14.1921 12.1676 14.0983 12.2097 14.0084C12.379 13.6611 12.5786 13.3697 12.8085 13.1345C13.0504 12.8992 13.3649 12.619 13.752 12.2941C14.2359 11.902 14.5927 11.5658 14.8226 11.2857C15.0524 10.9944 15.1673 10.6471 15.1673 10.2437C15.1673 9.69468 14.9375 9.2577 14.4778 8.93277C14.0181 8.59664 13.3831 8.42857 12.5726 8.42857C11.4466 8.42857 10.5311 8.70871 9.82622 9.26898C9.51332 9.51767 9.07355 9.59067 8.73993 9.37055C8.34582 9.11052 8.2645 8.5594 8.63024 8.26079C9.01299 7.94828 9.45009 7.69048 9.94153 7.48739C10.7399 7.16246 11.6593 7 12.6996 7C14.0181 7 15.0645 7.26891 15.8387 7.80672C16.6129 8.33333 17 9.06162 17 9.9916C17 10.451 16.9153 10.8599 16.746 11.2185C16.5887 11.5658 16.3952 11.8571 16.1653 12.0924C15.9355 12.3277 15.627 12.6078 15.2399 12.9328C14.744 13.3473 14.375 13.7115 14.1331 14.0252C14.0693 14.1122 14.0144 14.2049 13.9683 14.3031C13.7556 14.7568 13.3821 15.1849 12.881 15.1849ZM12.8992 19C12.5605 19 12.2762 18.8992 12.0464 18.6975C11.8286 18.4846 11.7198 18.2269 11.7198 17.9244C11.7198 17.6219 11.8286 17.3697 12.0464 17.1681C12.2762 16.9552 12.5605 16.8487 12.8992 16.8487C13.2379 16.8487 13.5161 16.9552 13.7339 17.1681C13.9516 17.3697 14.0605 17.6219 14.0605 17.9244C14.0605 18.2269 13.9456 18.4846 13.7157 18.6975C13.498 18.8992 13.2258 19 12.8992 19Z" fill="#B9A775"/>
</svg>
