<svg width="22" height="21" viewBox="0 0 22 21" fill="none" xmlns="http://www.w3.org/2000/svg">
<path d="M10.6865 12.985C12.1454 12.985 13.328 11.8352 13.328 10.4168C13.328 8.99845 12.1454 7.84863 10.6865 7.84863C9.22758 7.84863 8.04492 8.99845 8.04492 10.4168C8.04492 11.8352 9.22758 12.985 10.6865 12.985Z" stroke="#1D1D1D" stroke-width="1.7" stroke-linecap="round" stroke-linejoin="round"/>
<path d="M17.2015 12.9848C17.0843 13.243 17.0494 13.5295 17.1012 13.8072C17.153 14.0849 17.2891 14.3411 17.4921 14.5429L17.545 14.5942C17.7087 14.7532 17.8386 14.9421 17.9272 15.1499C18.0158 15.3578 18.0614 15.5805 18.0614 15.8055C18.0614 16.0305 18.0158 16.2533 17.9272 16.4612C17.8386 16.669 17.7087 16.8579 17.545 17.0169C17.3814 17.1761 17.1872 17.3023 16.9734 17.3885C16.7596 17.4747 16.5304 17.519 16.299 17.519C16.0676 17.519 15.8384 17.4747 15.6246 17.3885C15.4109 17.3023 15.2166 17.1761 15.0531 17.0169L15.0002 16.9655C14.7927 16.7682 14.5292 16.6358 14.2435 16.5854C13.9579 16.5351 13.6633 16.5691 13.3977 16.683C13.1373 16.7915 12.9152 16.9717 12.7587 17.2014C12.6023 17.4311 12.5183 17.7002 12.5172 17.9757V18.1212C12.5172 18.5753 12.3316 19.0108 12.0014 19.3318C11.6711 19.6529 11.2232 19.8333 10.7561 19.8333C10.2891 19.8333 9.84117 19.6529 9.51091 19.3318C9.18065 19.0108 8.99511 18.5753 8.99511 18.1212V18.0441C8.98829 17.7608 8.89396 17.486 8.72436 17.2555C8.55477 17.0249 8.31776 16.8493 8.04415 16.7515C7.77857 16.6375 7.48397 16.6035 7.19833 16.6539C6.9127 16.7043 6.64913 16.8366 6.44161 17.034L6.38878 17.0854C6.22522 17.2445 6.031 17.3708 5.81721 17.457C5.60343 17.5431 5.37427 17.5875 5.14284 17.5875C4.91141 17.5875 4.68226 17.5431 4.46847 17.457C4.25468 17.3708 4.06046 17.2445 3.89691 17.0854C3.73317 16.9263 3.60328 16.7375 3.51466 16.5297C3.42603 16.3218 3.38042 16.099 3.38042 15.874C3.38042 15.649 3.42603 15.4262 3.51466 15.2184C3.60328 15.0105 3.73317 14.8217 3.89691 14.6627L3.94974 14.6113C4.15273 14.4096 4.2889 14.1533 4.34069 13.8756C4.39248 13.5979 4.35752 13.3115 4.24031 13.0533C4.12869 12.8001 3.94336 12.5842 3.70712 12.4321C3.47089 12.28 3.19407 12.1984 2.91073 12.1973H2.76104C2.29398 12.1973 1.84605 12.0169 1.5158 11.6958C1.18554 11.3747 1 10.9392 1 10.4851C1 10.0311 1.18554 9.59557 1.5158 9.27449C1.84605 8.9534 2.29398 8.77302 2.76104 8.77302H2.84028C3.13173 8.76639 3.41439 8.67467 3.65151 8.50979C3.88862 8.34491 4.06924 8.11448 4.16987 7.84848C4.28708 7.59027 4.32204 7.30386 4.27025 7.02615C4.21846 6.74845 4.08229 6.4922 3.8793 6.29045L3.82647 6.23908C3.66273 6.08007 3.53284 5.89125 3.44422 5.6834C3.35559 5.47555 3.30998 5.25276 3.30998 5.02776C3.30998 4.80276 3.35559 4.57997 3.44422 4.37212C3.53284 4.16427 3.66273 3.97545 3.82647 3.81644C3.99002 3.65725 4.18424 3.53096 4.39803 3.4448C4.61181 3.35864 4.84097 3.31429 5.0724 3.31429C5.30383 3.31429 5.53299 3.35864 5.74677 3.4448C5.96056 3.53096 6.15478 3.65725 6.31833 3.81644L6.37116 3.8678C6.57868 4.06515 6.84226 4.19754 7.12789 4.24789C7.41353 4.29825 7.70813 4.26425 7.97371 4.1503H8.04415C8.30458 4.04178 8.52669 3.8616 8.68314 3.63192C8.83958 3.40225 8.92354 3.13312 8.92467 2.85765V2.71212C8.92467 2.25804 9.11021 1.82255 9.44047 1.50147C9.77072 1.18038 10.2187 1 10.6857 1C11.1528 1 11.6007 1.18038 11.9309 1.50147C12.2612 1.82255 12.4467 2.25804 12.4467 2.71212V2.78916C12.4479 3.06463 12.5318 3.33377 12.6883 3.56344C12.8447 3.79311 13.0668 3.9733 13.3273 4.08181C13.5928 4.19577 13.8874 4.22976 14.1731 4.17941C14.4587 4.12906 14.7223 3.99667 14.9298 3.79931L14.9826 3.74795C15.1462 3.58876 15.3404 3.46248 15.5542 3.37632C15.768 3.29016 15.9971 3.24581 16.2286 3.24581C16.46 3.24581 16.6892 3.29016 16.9029 3.37632C17.1167 3.46248 17.311 3.58876 17.4745 3.74795C17.6382 3.90696 17.7681 4.09579 17.8568 4.30364C17.9454 4.51148 17.991 4.73428 17.991 4.95927C17.991 5.18427 17.9454 5.40707 17.8568 5.61491C17.7681 5.82276 17.6382 6.01159 17.4745 6.1706L17.4217 6.22196C17.2187 6.42372 17.0825 6.67997 17.0307 6.95767C16.9789 7.23537 17.0139 7.52179 17.1311 7.77999V7.84848C17.2427 8.10167 17.4281 8.31761 17.6643 8.46971C17.9005 8.62181 18.1773 8.70344 18.4607 8.70453H18.6104C19.0774 8.70453 19.5254 8.88492 19.8556 9.206C20.1859 9.52709 20.3714 9.96257 20.3714 10.4167C20.3714 10.8707 20.1859 11.3062 19.8556 11.6273C19.5254 11.9484 19.0774 12.1288 18.6104 12.1288H18.5311C18.2478 12.1299 17.971 12.2115 17.7347 12.3636C17.4985 12.5157 17.3132 12.7316 17.2015 12.9848V12.9848Z" stroke="#1D1D1D" stroke-width="1.7" stroke-linecap="round" stroke-linejoin="round"/>
</svg>
