<svg width="18" height="17" viewBox="0 0 18 17" fill="none" xmlns="http://www.w3.org/2000/svg">
<path d="M8.90296 10.779C10.0934 10.779 11.0584 9.84076 11.0584 8.68343C11.0584 7.52609 10.0934 6.58789 8.90296 6.58789C7.71257 6.58789 6.74756 7.52609 6.74756 8.68343C6.74756 9.84076 7.71257 10.779 8.90296 10.779Z" stroke="#B9A775" stroke-width="1.08246" stroke-linecap="round" stroke-linejoin="round"/>
<path d="M14.2199 10.7792C14.1242 10.9899 14.0957 11.2236 14.1379 11.4502C14.1802 11.6768 14.2913 11.8858 14.457 12.0505L14.5001 12.0924C14.6337 12.2221 14.7396 12.3762 14.812 12.5458C14.8843 12.7154 14.9215 12.8972 14.9215 13.0808C14.9215 13.2644 14.8843 13.4462 14.812 13.6158C14.7396 13.7853 14.6337 13.9394 14.5001 14.0692C14.3666 14.1991 14.2081 14.3021 14.0337 14.3724C13.8592 14.4427 13.6723 14.4789 13.4834 14.4789C13.2946 14.4789 13.1076 14.4427 12.9332 14.3724C12.7587 14.3021 12.6002 14.1991 12.4668 14.0692L12.4237 14.0273C12.2544 13.8662 12.0393 13.7582 11.8062 13.7171C11.5732 13.676 11.3328 13.7038 11.1161 13.7967C10.9036 13.8853 10.7223 14.0323 10.5947 14.2197C10.467 14.4071 10.3985 14.6267 10.3976 14.8515V14.9702C10.3976 15.3408 10.2462 15.6961 9.97672 15.9581C9.70724 16.2201 9.34175 16.3673 8.96065 16.3673C8.57955 16.3673 8.21406 16.2201 7.94458 15.9581C7.6751 15.6961 7.52371 15.3408 7.52371 14.9702V14.9074C7.51815 14.6762 7.44117 14.452 7.30279 14.2638C7.16441 14.0757 6.97102 13.9325 6.74776 13.8526C6.53106 13.7596 6.29068 13.7319 6.05761 13.773C5.82454 13.8141 5.60948 13.9221 5.44015 14.0831L5.39704 14.1251C5.26359 14.2549 5.10511 14.358 4.93067 14.4283C4.75622 14.4986 4.56924 14.5348 4.3804 14.5348C4.19157 14.5348 4.00458 14.4986 3.83014 14.4283C3.6557 14.358 3.49722 14.2549 3.36377 14.1251C3.23017 13.9953 3.12418 13.8412 3.05187 13.6716C2.97955 13.502 2.94233 13.3202 2.94233 13.1367C2.94233 12.9531 2.97955 12.7713 3.05187 12.6017C3.12418 12.4321 3.23017 12.278 3.36377 12.1483L3.40688 12.1063C3.57251 11.9417 3.68362 11.7326 3.72588 11.506C3.76814 11.2794 3.73961 11.0457 3.64397 10.8351C3.5529 10.6285 3.40167 10.4523 3.20891 10.3282C3.01615 10.204 2.79028 10.1374 2.55908 10.1365H2.43694C2.05584 10.1365 1.69035 9.98936 1.42087 9.72736C1.15139 9.46537 1 9.11003 1 8.73952C1 8.369 1.15139 8.01367 1.42087 7.75167C1.69035 7.48968 2.05584 7.34249 2.43694 7.34249H2.5016C2.73941 7.33709 2.97005 7.26225 3.16353 7.12771C3.35701 6.99317 3.50438 6.80515 3.58649 6.5881C3.68213 6.37742 3.71066 6.14371 3.6684 5.91712C3.62614 5.69052 3.51503 5.48143 3.3494 5.31681L3.30629 5.2749C3.17269 5.14515 3.0667 4.99107 2.99439 4.82148C2.92208 4.65188 2.88485 4.47009 2.88485 4.2865C2.88485 4.10291 2.92208 3.92112 2.99439 3.75152C3.0667 3.58193 3.17269 3.42785 3.30629 3.29811C3.43974 3.16822 3.59822 3.06517 3.77266 2.99487C3.94711 2.92456 4.13409 2.88838 4.32293 2.88838C4.51176 2.88838 4.69875 2.92456 4.87319 2.99487C5.04763 3.06517 5.20611 3.16822 5.33956 3.29811L5.38267 3.34002C5.552 3.50105 5.76706 3.60907 6.00013 3.65016C6.2332 3.69125 6.47358 3.66351 6.69029 3.57053H6.74776C6.96027 3.48198 7.1415 3.33496 7.26915 3.14755C7.39681 2.96015 7.46531 2.74054 7.46623 2.51577V2.39702C7.46623 2.02651 7.61763 1.67117 7.8871 1.40918C8.15658 1.14719 8.52207 1 8.90317 1C9.28428 1 9.64977 1.14719 9.91925 1.40918C10.1887 1.67117 10.3401 2.02651 10.3401 2.39702V2.45989C10.341 2.68466 10.4095 2.90427 10.5372 3.09167C10.6649 3.27908 10.8461 3.4261 11.0586 3.51464C11.2753 3.60763 11.5157 3.63536 11.7487 3.59428C11.9818 3.55319 12.1969 3.44517 12.3662 3.28414L12.4093 3.24223C12.5428 3.11233 12.7012 3.00929 12.8757 2.93899C13.0501 2.86868 13.2371 2.8325 13.4259 2.8325C13.6148 2.8325 13.8018 2.86868 13.9762 2.93899C14.1507 3.00929 14.3091 3.11233 14.4426 3.24223C14.5762 3.37197 14.6822 3.52605 14.7545 3.69564C14.8268 3.86524 14.864 4.04703 14.864 4.23062C14.864 4.41421 14.8268 4.596 14.7545 4.7656C14.6822 4.93519 14.5762 5.08927 14.4426 5.21902L14.3995 5.26093C14.2338 5.42555 14.1227 5.63464 14.0805 5.86124C14.0382 6.08783 14.0667 6.32154 14.1624 6.53222V6.5881C14.2535 6.7947 14.4047 6.9709 14.5974 7.09501C14.7902 7.21911 15.0161 7.28572 15.2473 7.28661H15.3694C15.7505 7.28661 16.116 7.4338 16.3855 7.69579C16.655 7.95778 16.8063 8.31312 16.8063 8.68364C16.8063 9.05415 16.655 9.40949 16.3855 9.67148C16.116 9.93348 15.7505 10.0807 15.3694 10.0807H15.3047C15.0736 10.0816 14.8477 10.1482 14.6549 10.2723C14.4622 10.3964 14.3109 10.5726 14.2199 10.7792V10.7792Z" stroke="#B9A775" stroke-width="1.08246" stroke-linecap="round" stroke-linejoin="round"/>
</svg>
